<mxfile host="app.diagrams.net" modified="2021-06-07T06:56:39.467Z" agent="5.0 (Macintosh; Intel Mac OS X 10_15_7) AppleWebKit/605.1.15 (KHTML, like Gecko) Version/13.1.3 Safari/605.1.15" etag="ii4pDfRN64-anC0QWfKL" version="14.7.6" type="github">
  <diagram id="C5RBs43oDa-KdzZeNtuy" name="Page-1">
    <mxGraphModel dx="946" dy="662" grid="1" gridSize="10" guides="1" tooltips="1" connect="1" arrows="1" fold="1" page="1" pageScale="1" pageWidth="827" pageHeight="1169" math="0" shadow="0">
      <root>
        <mxCell id="WIyWlLk6GJQsqaUBKTNV-0" />
        <mxCell id="WIyWlLk6GJQsqaUBKTNV-1" parent="WIyWlLk6GJQsqaUBKTNV-0" />
        <mxCell id="2b5Yf5LOg3UyyD81bj7E-38" style="edgeStyle=orthogonalEdgeStyle;rounded=0;orthogonalLoop=1;jettySize=auto;html=1;entryX=0;entryY=0.5;entryDx=0;entryDy=0;" edge="1" parent="WIyWlLk6GJQsqaUBKTNV-1" source="2b5Yf5LOg3UyyD81bj7E-0" target="2b5Yf5LOg3UyyD81bj7E-1">
          <mxGeometry relative="1" as="geometry" />
        </mxCell>
        <mxCell id="2b5Yf5LOg3UyyD81bj7E-0" value="Original&lt;br&gt;Data" style="rounded=1;whiteSpace=wrap;html=1;fillColor=#f5f5f5;strokeColor=#666666;fontColor=#333333;" vertex="1" parent="WIyWlLk6GJQsqaUBKTNV-1">
          <mxGeometry x="182" y="139" width="60" height="50.5" as="geometry" />
        </mxCell>
        <mxCell id="2b5Yf5LOg3UyyD81bj7E-12" style="edgeStyle=orthogonalEdgeStyle;rounded=0;orthogonalLoop=1;jettySize=auto;html=1;exitX=1;exitY=0.5;exitDx=0;exitDy=0;entryX=0;entryY=0.5;entryDx=0;entryDy=0;" edge="1" parent="WIyWlLk6GJQsqaUBKTNV-1" source="2b5Yf5LOg3UyyD81bj7E-1" target="2b5Yf5LOg3UyyD81bj7E-9">
          <mxGeometry relative="1" as="geometry" />
        </mxCell>
        <mxCell id="2b5Yf5LOg3UyyD81bj7E-13" style="edgeStyle=orthogonalEdgeStyle;rounded=0;orthogonalLoop=1;jettySize=auto;html=1;exitX=0.5;exitY=1;exitDx=0;exitDy=0;entryX=0;entryY=0.5;entryDx=0;entryDy=0;" edge="1" parent="WIyWlLk6GJQsqaUBKTNV-1" source="2b5Yf5LOg3UyyD81bj7E-1" target="2b5Yf5LOg3UyyD81bj7E-10">
          <mxGeometry relative="1" as="geometry" />
        </mxCell>
        <mxCell id="2b5Yf5LOg3UyyD81bj7E-36" style="edgeStyle=orthogonalEdgeStyle;rounded=0;orthogonalLoop=1;jettySize=auto;html=1;exitX=0.5;exitY=0;exitDx=0;exitDy=0;entryX=0;entryY=0.5;entryDx=0;entryDy=0;" edge="1" parent="WIyWlLk6GJQsqaUBKTNV-1" source="2b5Yf5LOg3UyyD81bj7E-1" target="2b5Yf5LOg3UyyD81bj7E-8">
          <mxGeometry relative="1" as="geometry" />
        </mxCell>
        <mxCell id="2b5Yf5LOg3UyyD81bj7E-1" value="Featured&lt;br&gt;Data" style="rounded=1;whiteSpace=wrap;html=1;" vertex="1" parent="WIyWlLk6GJQsqaUBKTNV-1">
          <mxGeometry x="235" y="270" width="70" height="50" as="geometry" />
        </mxCell>
        <mxCell id="2b5Yf5LOg3UyyD81bj7E-7" value="Pre-Process" style="text;html=1;strokeColor=none;fillColor=none;align=center;verticalAlign=middle;whiteSpace=wrap;rounded=0;" vertex="1" parent="WIyWlLk6GJQsqaUBKTNV-1">
          <mxGeometry x="160" y="240" width="50" height="20" as="geometry" />
        </mxCell>
        <mxCell id="2b5Yf5LOg3UyyD81bj7E-22" style="edgeStyle=orthogonalEdgeStyle;rounded=0;orthogonalLoop=1;jettySize=auto;html=1;exitX=1;exitY=0.5;exitDx=0;exitDy=0;entryX=0;entryY=0.5;entryDx=0;entryDy=0;" edge="1" parent="WIyWlLk6GJQsqaUBKTNV-1" source="2b5Yf5LOg3UyyD81bj7E-8" target="2b5Yf5LOg3UyyD81bj7E-14">
          <mxGeometry relative="1" as="geometry" />
        </mxCell>
        <mxCell id="2b5Yf5LOg3UyyD81bj7E-8" value="Random&lt;br&gt;Forest&lt;span style=&quot;color: rgba(0 , 0 , 0 , 0) ; font-family: monospace ; font-size: 0px&quot;&gt;%3CmxGraphModel%3E%3Croot%3E%3CmxCell%20id%3D%220%22%2F%3E%3CmxCell%20id%3D%221%22%20parent%3D%220%22%2F%3E%3CmxCell%20id%3D%222%22%20value%3D%22Featured%26lt%3Bbr%26gt%3BData%22%20style%3D%22rounded%3D1%3BwhiteSpace%3Dwrap%3Bhtml%3D1%3B%22%20vertex%3D%221%22%20parent%3D%221%22%3E%3CmxGeometry%20x%3D%22260%22%20y%3D%22270%22%20width%3D%2270%22%20height%3D%2250%22%20as%3D%22geometry%22%2F%3E%3C%2FmxCell%3E%3C%2Froot%3E%3C%2FmxGraphModel%3E&lt;/span&gt;" style="rounded=1;whiteSpace=wrap;html=1;" vertex="1" parent="WIyWlLk6GJQsqaUBKTNV-1">
          <mxGeometry x="340" y="190" width="70" height="50" as="geometry" />
        </mxCell>
        <mxCell id="2b5Yf5LOg3UyyD81bj7E-23" style="edgeStyle=orthogonalEdgeStyle;rounded=0;orthogonalLoop=1;jettySize=auto;html=1;exitX=1;exitY=0.5;exitDx=0;exitDy=0;entryX=0;entryY=0.5;entryDx=0;entryDy=0;" edge="1" parent="WIyWlLk6GJQsqaUBKTNV-1" source="2b5Yf5LOg3UyyD81bj7E-9" target="2b5Yf5LOg3UyyD81bj7E-17">
          <mxGeometry relative="1" as="geometry" />
        </mxCell>
        <mxCell id="2b5Yf5LOg3UyyD81bj7E-9" value="LightGBM" style="rounded=1;whiteSpace=wrap;html=1;" vertex="1" parent="WIyWlLk6GJQsqaUBKTNV-1">
          <mxGeometry x="340" y="270" width="70" height="50" as="geometry" />
        </mxCell>
        <mxCell id="2b5Yf5LOg3UyyD81bj7E-24" style="edgeStyle=orthogonalEdgeStyle;rounded=0;orthogonalLoop=1;jettySize=auto;html=1;exitX=1;exitY=0.5;exitDx=0;exitDy=0;entryX=0;entryY=0.5;entryDx=0;entryDy=0;" edge="1" parent="WIyWlLk6GJQsqaUBKTNV-1" source="2b5Yf5LOg3UyyD81bj7E-10" target="2b5Yf5LOg3UyyD81bj7E-18">
          <mxGeometry relative="1" as="geometry" />
        </mxCell>
        <mxCell id="2b5Yf5LOg3UyyD81bj7E-10" value="DT Tree&lt;br&gt;Bagging" style="rounded=1;whiteSpace=wrap;html=1;" vertex="1" parent="WIyWlLk6GJQsqaUBKTNV-1">
          <mxGeometry x="340" y="350" width="70" height="50" as="geometry" />
        </mxCell>
        <mxCell id="2b5Yf5LOg3UyyD81bj7E-25" style="edgeStyle=orthogonalEdgeStyle;rounded=0;orthogonalLoop=1;jettySize=auto;html=1;exitX=1;exitY=0.5;exitDx=0;exitDy=0;entryX=0.5;entryY=0;entryDx=0;entryDy=0;" edge="1" parent="WIyWlLk6GJQsqaUBKTNV-1" source="2b5Yf5LOg3UyyD81bj7E-14" target="2b5Yf5LOg3UyyD81bj7E-19">
          <mxGeometry relative="1" as="geometry" />
        </mxCell>
        <mxCell id="2b5Yf5LOg3UyyD81bj7E-14" value="Prob&lt;br&gt;Prediction 1" style="rounded=0;whiteSpace=wrap;html=1;fillColor=#dae8fc;strokeColor=#6c8ebf;" vertex="1" parent="WIyWlLk6GJQsqaUBKTNV-1">
          <mxGeometry x="450" y="189.5" width="90" height="52.5" as="geometry" />
        </mxCell>
        <mxCell id="2b5Yf5LOg3UyyD81bj7E-26" style="edgeStyle=orthogonalEdgeStyle;rounded=0;orthogonalLoop=1;jettySize=auto;html=1;exitX=1;exitY=0.5;exitDx=0;exitDy=0;entryX=0;entryY=0.5;entryDx=0;entryDy=0;" edge="1" parent="WIyWlLk6GJQsqaUBKTNV-1" source="2b5Yf5LOg3UyyD81bj7E-17" target="2b5Yf5LOg3UyyD81bj7E-19">
          <mxGeometry relative="1" as="geometry" />
        </mxCell>
        <mxCell id="2b5Yf5LOg3UyyD81bj7E-17" value="Prob&lt;br&gt;Prediction 2" style="rounded=0;whiteSpace=wrap;html=1;fillColor=#d5e8d4;strokeColor=#82b366;" vertex="1" parent="WIyWlLk6GJQsqaUBKTNV-1">
          <mxGeometry x="450" y="268.75" width="90" height="52.5" as="geometry" />
        </mxCell>
        <mxCell id="2b5Yf5LOg3UyyD81bj7E-27" style="edgeStyle=orthogonalEdgeStyle;rounded=0;orthogonalLoop=1;jettySize=auto;html=1;exitX=1;exitY=0.5;exitDx=0;exitDy=0;entryX=0.5;entryY=1;entryDx=0;entryDy=0;" edge="1" parent="WIyWlLk6GJQsqaUBKTNV-1" source="2b5Yf5LOg3UyyD81bj7E-18" target="2b5Yf5LOg3UyyD81bj7E-21">
          <mxGeometry relative="1" as="geometry" />
        </mxCell>
        <mxCell id="2b5Yf5LOg3UyyD81bj7E-18" value="Prob&lt;br&gt;Prediction 3" style="rounded=0;whiteSpace=wrap;html=1;fillColor=#fff2cc;strokeColor=#d6b656;" vertex="1" parent="WIyWlLk6GJQsqaUBKTNV-1">
          <mxGeometry x="450" y="349" width="90" height="52.5" as="geometry" />
        </mxCell>
        <mxCell id="2b5Yf5LOg3UyyD81bj7E-31" style="edgeStyle=orthogonalEdgeStyle;rounded=0;orthogonalLoop=1;jettySize=auto;html=1;exitX=0.75;exitY=1;exitDx=0;exitDy=0;" edge="1" parent="WIyWlLk6GJQsqaUBKTNV-1" source="2b5Yf5LOg3UyyD81bj7E-21" target="2b5Yf5LOg3UyyD81bj7E-28">
          <mxGeometry relative="1" as="geometry" />
        </mxCell>
        <mxCell id="2b5Yf5LOg3UyyD81bj7E-21" value="Prob&lt;br&gt;Prediction 3" style="rounded=0;whiteSpace=wrap;html=1;fillColor=#fff2cc;strokeColor=#d6b656;" vertex="1" parent="WIyWlLk6GJQsqaUBKTNV-1">
          <mxGeometry x="600" y="290.75" width="90" height="52.5" as="geometry" />
        </mxCell>
        <mxCell id="2b5Yf5LOg3UyyD81bj7E-20" value="Prob&lt;br&gt;Prediction 2" style="rounded=0;whiteSpace=wrap;html=1;fillColor=#d5e8d4;strokeColor=#82b366;" vertex="1" parent="WIyWlLk6GJQsqaUBKTNV-1">
          <mxGeometry x="590" y="278.75" width="90" height="52.5" as="geometry" />
        </mxCell>
        <mxCell id="2b5Yf5LOg3UyyD81bj7E-19" value="Prob&lt;br&gt;Prediction 1" style="rounded=0;whiteSpace=wrap;html=1;fillColor=#dae8fc;strokeColor=#6c8ebf;" vertex="1" parent="WIyWlLk6GJQsqaUBKTNV-1">
          <mxGeometry x="580" y="268.75" width="90" height="52.5" as="geometry" />
        </mxCell>
        <mxCell id="2b5Yf5LOg3UyyD81bj7E-28" value="State&lt;br&gt;Prediction" style="rounded=1;whiteSpace=wrap;html=1;fillColor=#f5f5f5;strokeColor=#666666;fontColor=#333333;" vertex="1" parent="WIyWlLk6GJQsqaUBKTNV-1">
          <mxGeometry x="637" y="433" width="60" height="50" as="geometry" />
        </mxCell>
        <mxCell id="2b5Yf5LOg3UyyD81bj7E-33" value="Post-Process" style="text;html=1;strokeColor=none;fillColor=none;align=center;verticalAlign=middle;whiteSpace=wrap;rounded=0;" vertex="1" parent="WIyWlLk6GJQsqaUBKTNV-1">
          <mxGeometry x="672" y="381.5" width="40" height="20" as="geometry" />
        </mxCell>
      </root>
    </mxGraphModel>
  </diagram>
</mxfile>
